<svg width="16" height="16" viewBox="0 0 16 16" fill="none" xmlns="http://www.w3.org/2000/svg">
<path d="M14.8442 6.51797C14.8287 6.44806 14.7984 6.3823 14.7552 6.32513C14.7121 6.26797 14.6572 6.22074 14.5942 6.18664L13.1069 5.3613C13.0284 5.20016 12.9407 5.04368 12.8442 4.89264L12.8689 3.19264C12.8695 3.12129 12.8554 3.05059 12.8274 2.98496C12.7994 2.91934 12.7582 2.86021 12.7062 2.8113C11.9656 2.13976 11.0897 1.63465 10.1376 1.32997C10.0692 1.30875 9.99721 1.30223 9.9262 1.31085C9.85519 1.31947 9.78681 1.34302 9.72556 1.37997L8.26889 2.2553C8.08756 2.24864 7.91289 2.24864 7.73156 2.2553L6.27556 1.37997C6.21413 1.34283 6.14552 1.31917 6.07426 1.31055C6.00301 1.30193 5.93073 1.30855 5.86222 1.32997C4.90899 1.6351 4.03298 2.14269 3.29422 2.81797C3.24193 2.86518 3.20035 2.92305 3.17229 2.98768C3.14424 3.0523 3.13034 3.12219 3.13156 3.19264L3.16289 4.89264C3.06289 5.04264 2.97556 5.1993 2.88756 5.3613L1.40689 6.18664C1.34314 6.21971 1.2876 6.26664 1.24434 6.32397C1.20108 6.3813 1.1712 6.44759 1.15689 6.51797C0.944448 7.49387 0.944448 8.50406 1.15689 9.47997C1.1724 9.54988 1.20275 9.61564 1.24588 9.6728C1.28902 9.72997 1.34392 9.7772 1.40689 9.8113L2.89489 10.6366C2.97489 10.798 3.06422 10.9546 3.16356 11.1053L3.13222 12.8053C3.13166 12.8766 3.14581 12.9473 3.1738 13.0129C3.20179 13.0785 3.24301 13.1377 3.29489 13.1866C4.03651 13.8568 4.91207 14.3617 5.86356 14.668C5.93195 14.6894 6.00412 14.696 6.07527 14.6874C6.14642 14.6787 6.21492 14.6551 6.27622 14.618L7.73222 13.7426H8.26956L9.73222 14.618C9.80821 14.6678 9.89736 14.6938 9.98822 14.6926C10.039 14.6905 10.0894 14.6823 10.1382 14.668C11.0919 14.363 11.9684 13.8554 12.7076 13.18C12.7596 13.1326 12.801 13.0747 12.8289 13.0101C12.8569 12.9455 12.8707 12.8757 12.8696 12.8053L12.8449 11.1053C12.9382 10.9553 13.0262 10.7986 13.1136 10.6366L14.6009 9.8113C14.663 9.77689 14.717 9.72947 14.7591 9.67229C14.8012 9.61511 14.8305 9.5495 14.8449 9.47997C15.0576 8.50397 15.0569 7.4933 14.8442 6.51797ZM10.7509 7.9993C10.7509 8.36052 10.6797 8.71821 10.5415 9.05194C10.4033 9.38566 10.2007 9.68889 9.94524 9.94432C9.68982 10.1997 9.38659 10.4024 9.05286 10.5406C8.71913 10.6788 8.36145 10.75 8.00022 10.75C7.639 10.75 7.28132 10.6788 6.94759 10.5406C6.61386 10.4024 6.31063 10.1997 6.05521 9.94432C5.79979 9.68889 5.59717 9.38566 5.45894 9.05194C5.32071 8.71821 5.24956 8.36052 5.24956 7.9993C5.24956 7.26987 5.53932 6.57031 6.05511 6.05452C6.5709 5.53874 7.27046 5.24897 7.99989 5.24897C8.72932 5.24897 9.42888 5.53874 9.94467 6.05452C10.4605 6.57031 10.7509 7.26987 10.7509 7.9993Z" fill="#838DA7"/>
</svg>
