<svg width="80" height="80" viewBox="0 0 80 80" fill="none" xmlns="http://www.w3.org/2000/svg">
<path d="M70.5933 32.1233C69.4067 30.9067 68.1867 29.6233 67.72 28.53C67.25 27.4367 67.28 25.8133 67.25 24.1567C67.2167 21.1233 67.1567 17.6567 64.75 15.25C62.3433 12.8433 58.8767 12.7833 55.8433 12.75C54.1867 12.7167 52.5 12.6867 51.47 12.2833C50.4367 11.8733 49.0933 10.5933 47.8733 9.40667C45.72 7.34333 43.2533 5 40 5C36.75 5 34.28 7.34333 32.1233 9.40667C30.9067 10.5933 29.6233 11.8133 28.53 12.28C27.4367 12.75 25.8133 12.72 24.1567 12.75C21.1233 12.7833 17.6567 12.8433 15.25 15.25C12.8433 17.6567 12.7833 21.1267 12.75 24.1567C12.7167 25.8133 12.6867 27.5 12.2833 28.53C11.8733 29.5633 10.5933 30.9067 9.40667 32.1267C7.34333 34.28 5 36.7467 5 40C5 43.25 7.34333 45.72 9.40667 47.8767C10.5933 49.0933 11.8133 50.3767 12.28 51.47C12.75 52.5633 12.72 54.1867 12.75 55.8433C12.7833 58.8767 12.8433 62.3433 15.25 64.75C17.6567 67.1567 21.1267 67.2167 24.1567 67.25C25.8133 67.2833 27.5 67.3133 28.53 67.7167C29.5633 68.1233 30.9067 69.4067 32.1267 70.5933C34.28 72.6567 36.75 75 40 75C43.25 75 45.72 72.6567 47.8767 70.5933C49.0933 69.4067 50.3767 68.1867 51.47 67.72C52.5633 67.25 54.1867 67.28 55.8433 67.25C58.8767 67.2167 62.3433 67.1567 64.75 64.75C67.1567 62.3433 67.2167 58.8767 67.25 55.8433C67.2833 54.1867 67.3133 52.5 67.7167 51.47C68.1233 50.4367 69.4067 49.0933 70.5933 47.8733C72.6567 45.72 75 43.25 75 40C75 36.75 72.6567 34.28 70.5933 32.1233ZM55.47 34.3133L37.1567 51.8133C36.687 52.2539 36.0673 52.4991 35.4233 52.4991C34.7794 52.4991 34.1596 52.2539 33.69 51.8133L24.53 43.0633C24.2829 42.8397 24.0831 42.569 23.9421 42.267C23.8012 41.9651 23.7221 41.638 23.7094 41.305C23.6967 40.972 23.7507 40.6398 23.8682 40.328C23.9857 40.0162 24.1644 39.731 24.3937 39.4893C24.6231 39.2475 24.8984 39.054 25.2036 38.9202C25.5087 38.7864 25.8376 38.7149 26.1708 38.71C26.504 38.7051 26.8348 38.7669 27.1438 38.8917C27.4528 39.0164 27.7337 39.2017 27.97 39.4367L35.4033 46.53L52.03 30.6867C52.5141 30.2486 53.1504 30.0172 53.8028 30.0421C54.4552 30.0669 55.0721 30.3461 55.5214 30.8198C55.9707 31.2935 56.2169 31.9242 56.2073 32.577C56.1977 33.2299 55.9331 33.853 55.47 34.3133Z" fill="#22CB49"/>
</svg>
